<svg width="54" height="54" viewBox="0 0 54 54" fill="none" xmlns="http://www.w3.org/2000/svg">
<path d="M19.8571 23.143C19.8571 21.162 18.2667 19.5716 16.2857 19.5716C14.3047 19.5716 12.7143 21.162 12.7143 23.143C12.7143 25.1241 14.3047 26.7145 16.2857 26.7145C18.2667 26.7145 19.8571 25.1241 19.8571 23.143ZM30.5714 23.143C30.5714 21.162 28.981 19.5716 27 19.5716C25.019 19.5716 23.4286 21.162 23.4286 23.143C23.4286 25.1241 25.019 26.7145 27 26.7145C28.981 26.7145 30.5714 25.1241 30.5714 23.143ZM41.2857 23.143C41.2857 21.162 39.6953 19.5716 37.7143 19.5716C35.7333 19.5716 34.1429 21.162 34.1429 23.143C34.1429 25.1241 35.7333 26.7145 37.7143 26.7145C39.6953 26.7145 41.2857 25.1241 41.2857 23.143ZM27 8.85732C38.6071 8.85732 48.4286 15.3863 48.4286 23.143C48.4286 30.8997 38.6071 37.4287 27 37.4287C25.8002 37.4287 24.5725 37.345 23.3728 37.2055L21.7824 37.0381L20.5826 38.0984C18.2946 40.1073 15.7277 41.6977 12.9096 42.8696C13.635 41.5861 14.3326 40.0515 14.8627 38.0705L15.6161 35.3919L13.1886 33.9968C8.36161 31.2625 5.57143 27.3004 5.57143 23.143C5.57143 15.3863 15.3929 8.85732 27 8.85732ZM52 23.143C52 13.2937 40.8114 5.28589 27 5.28589C13.1886 5.28589 2 13.2937 2 23.143C2 28.8071 5.68304 33.8573 11.4308 37.1218C10.1194 41.7814 8.11049 43.4555 6.35268 45.4366C5.93415 45.9388 5.45982 46.3573 5.59933 47.0549C5.59933 47.0549 5.59933 47.0549 5.59933 47.0828C5.73884 47.6966 6.24107 48.143 6.79911 48.143C6.82701 48.143 6.88281 48.143 6.93862 48.143C8.02679 48.0035 9.11496 47.8082 10.1194 47.5292C14.9464 46.3015 19.2991 44.0136 22.9542 40.777C24.2656 40.9165 25.6328 41.0002 27 41.0002C40.8114 41.0002 52 33.0203 52 23.143Z" fill="#EBEAED"/>
</svg>
